<?xml version="1.0" encoding="UTF-8"?>
<!DOCTYPE svg PUBLIC "-//W3C//DTD SVG 1.1//EN" "http://www.w3.org/Graphics/SVG/1.1/DTD/svg11.dtd">
<!-- Creator: CorelDRAW X7 -->
<svg xmlns="http://www.w3.org/2000/svg" xml:space="preserve" width="512px" height="500px" version="1.1" style="shape-rendering:geometricPrecision; text-rendering:geometricPrecision; image-rendering:optimizeQuality; fill-rule:evenodd; clip-rule:evenodd"
viewBox="0 0 512 500"
 xmlns:xlink="http://www.w3.org/1999/xlink">
 <defs>
  <style type="text/css">
   <![CDATA[
    .str3 {stroke:#2D8FD0;stroke-width:6.99923}
    .str0 {stroke:#FEFEFE;stroke-width:0.999216}
    .str2 {stroke:#6CC9EB;stroke-width:7.99963}
    .str1 {stroke:#FEE071;stroke-width:2.36221}
    .fil8 {fill:none}
    .fil3 {fill:#FEFEFE}
    .fil6 {fill:#FEE071}
    .fil4 {fill:#F4B3B3}
    .fil11 {fill:#E95A6F}
    .fil10 {fill:#E95A6F}
    .fil14 {fill:#2D8FD0}
    .fil0 {fill:#4274CC}
    .fil12 {fill:#5FAEEC}
    .fil13 {fill:#6CC9EB}
    .fil9 {fill:#AADDF0}
    .fil5 {fill:#B8B2ED}
    .fil2 {fill:#6CC9EB;fill-opacity:0.368627}
    .fil7 {fill:#6CC9EB;fill-opacity:0.400000}
    .fil1 {fill:#5FA8F5;fill-opacity:0.780392}
   ]]>
  </style>
 </defs>
 <g id="Layer_x0020_1">
  <metadata id="CorelCorpID_0Corel-Layer"/>
  <g id="_427861456">
   <polygon class="fil0" points="61,387 119,392 416,415 416,112 61,150 "/>
   <polygon class="fil1" points="281,349 282,107 458,85 458,354 "/>
   <polygon class="fil2" points="54,381 111,385 403,406 403,136 54,169 "/>
   <path class="fil3" d="M342 231c-11,-11 -17,-25 -17,-41 0,-33 26,-59 59,-59 30,0 49,28 49,28l-24 14c-5,-8 -14,-13 -25,-13 -16,0 -30,14 -30,31 0,7 3,15 8,20l-20 20z"/>
   <path class="fil4" d="M409 173l24 -14c5,9 9,20 9,31 0,4 -1,8 -1,11l-27 -5c0,-2 0,-4 0,-5 0,-7 -2,-13 -5,-18z"/>
   <path class="fil5" d="M372 218l-10 27c-8,-3 -15,-8 -20,-14l20 -20c3,3 6,6 10,7z"/>
   <path class="fil6" d="M416 204l26 9c-9,24 -31,40 -56,40 -5,0 -10,0 -15,-2l7 -26c3,1 6,2 9,2 14,0 25,-10 29,-23z"/>
   <polygon class="fil7" points="90,370 97,371 244,380 244,162 89,176 "/>
   <g>
    <path class="fil8 str0" d="M87 185l133 -9c2,0 3,1 3,3l0 30c0,2 -1,3 -3,3l-133 7c-2,0 -3,-1 -3,-3l0 -28c0,-1 1,-3 3,-3z"/>
    <path class="fil8 str0" d="M87 230l133 -5c2,0 3,1 3,3l0 29c0,2 -1,3 -3,3l-133 7c-2,0 -3,-1 -3,-3l0 -30c0,-2 1,-4 3,-4z"/>
    <path class="fil8 str0" d="M87 275l132 -2c2,0 4,1 4,3l0 31c0,2 -1,3 -3,3l-133 0c-1,0 -3,-1 -3,-3l0 -29c0,-2 1,-3 3,-3z"/>
    <path class="fil8 str0" d="M87 322l132 0c2,0 4,2 4,3l0 31c0,2 -1,4 -3,4l-133 -5c-1,0 -3,-2 -3,-3l0 -26c0,-2 2,-4 3,-4z"/>
    <path class="fil3" d="M92 235l133 -5c1,0 3,1 3,3l0 30c0,2 -1,4 -3,4l-133 2c-2,0 -4,-1 -4,-3l1 -27c0,-2 1,-4 3,-4z"/>
    <rect class="fil9" transform="matrix(0.997644 -0.0605912 0.0979724 1.18097 96.1857 195.875)" width="55.0006" height="3.99922"/>
    <polygon class="fil9" points="96,205 128,203 129,208 97,210 "/>
    <polygon class="fil9" points="133,203 169,201 169,206 134,208 "/>
    <rect class="fil9" transform="matrix(0.99981 -0.021504 0.0194945 1.10287 92.7517 240.235)" width="54.4998" height="3.49962"/>
    <rect class="fil9" transform="matrix(0.99981 -0.021504 0.0194945 1.10287 92.9654 247.43)" width="54.4998" height="3.49962"/>
    <polygon class="fil9" points="92,255 116,254 116,258 92,259 "/>
    <polygon class="fil9" points="119,254 134,254 134,258 119,258 "/>
    <rect class="fil9" x="101" y="285" width="49.9998" height="4.50001"/>
    <rect class="fil9" x="101" y="295" width="32.1816" height="4.50001"/>
    <rect class="fil9" x="138" y="295" width="23.6705" height="4.50001"/>
    <rect class="fil9" transform="matrix(0.999559 0.0296864 -0.0296864 0.999559 112.732 330.901)" width="71.001" height="5.0008"/>
    <polygon class="fil9" points="112,340 133,341 133,346 112,345 "/>
    <polygon class="fil9" points="137,341 175,342 175,347 137,346 "/>
    <rect class="fil10" transform="matrix(0.999932 0.0115185 -0.0117043 0.984061 197.447 258.666)" width="16.9997" height="19.0005"/>
    <rect class="fil10" x="170" y="301" width="16.0004" height="19.0005"/>
   </g>
   <polygon class="fil11" points="291,262 302,261 302,268 291,268 "/>
   <polygon class="fil11" points="331,261 342,260 342,267 331,267 "/>
   <polygon class="fil11" points="311,261 322,260 322,267 311,267 "/>
   <circle class="fil3" cx="302" cy="165" r="11"/>
   <circle class="fil12" cx="302" cy="165" r="5"/>
   <circle class="fil3" cx="303" cy="198" r="11"/>
   <circle class="fil12" cx="303" cy="198" r="5"/>
   <circle class="fil3" cx="303" cy="231" r="11"/>
   <circle class="fil12" cx="303" cy="231" r="5"/>
   <rect class="fil5" x="256" y="346" width="3.00001" height="38.5005"/>
   <rect class="fil4" x="312" y="305" width="3.00001" height="82.0006"/>
   <rect class="fil3" x="372" y="270" width="3.00001" height="121"/>
   <g>
    <path class="fil8 str1" d="M439 365c-11,2 -26,-19 -33,-39 -9,-23 -15,-36 -32,-38"/>
    <path class="fil8 str1" d="M314 359c11,2 21,-13 28,-33 8,-23 16,-38 33,-38"/>
    <path class="fil8 str1" d="M315 359c-12,0 -21,-13 -28,-33 -9,-23 -16,-36 -33,-38"/>
   </g>
   <path class="fil3" d="M128 152c-4,-1 -8,0 -9,4 -2,3 0,7 3,8 4,2 8,0 9,-3 2,-3 0,-8 -3,-9zm11 8c1,0 1,1 1,1 0,1 -1,2 -1,2 -1,3 -1,1 -3,1 0,0 -2,1 -2,2 -1,1 -1,2 0,3 0,1 0,1 -1,2 0,0 -1,0 -1,1 -2,1 -2,0 -3,-1 -1,-1 -2,-1 -3,-1 -1,0 -2,1 -3,2 0,1 0,1 -1,1 -1,0 -1,0 -2,-1 -2,0 -1,-1 -1,-2 0,-3 -3,-4 -5,-3 -1,0 -1,0 -2,-1 0,0 -1,-2 -1,-3 0,0 1,0 1,-1 2,-2 2,-5 -1,-6 -1,0 -1,0 -1,-1 0,-1 1,-1 1,-2 0,-2 1,-1 2,-1 3,0 5,-3 3,-5 0,-1 0,-1 1,-2 0,0 2,-1 3,-1 0,0 1,1 1,1 1,1 2,2 3,1 1,0 2,0 3,-2 0,0 0,0 0,-1 1,0 2,1 3,1 2,1 2,1 1,2 0,3 3,5 5,3 1,0 1,0 2,1 0,1 1,2 1,3 0,1 -1,1 -1,1 -2,2 -1,5 1,6z"/>
   <g>
    <path class="fil13" d="M102 151c1,-2 1,-3 2,-4 0,-3 -1,-5 -2,-7 -1,-1 -2,-2 -3,-2 -5,-3 -11,-1 -13,3 -2,3 -2,6 -1,8 0,2 2,4 4,5 3,2 6,2 8,1 2,0 4,-2 5,-4zm3 7c-1,-1 -3,-1 -4,-1 -1,1 -2,3 -2,5 0,0 0,0 0,1 -1,0 -3,0 -4,0 -2,0 -1,0 -2,-1 0,-1 -1,-2 -2,-3 -1,0 -3,0 -4,1 0,0 0,1 -1,1 -1,0 -1,0 -2,-1 -1,0 -1,-1 -2,-1 0,-1 -1,-1 0,-2 2,-3 0,-7 -4,-6 0,0 0,0 -1,0 0,-1 0,-3 0,-4 0,-1 0,-1 0,-2 1,0 1,0 1,0 0,0 1,0 1,0 2,-1 3,-4 1,-5 0,-1 -1,-1 -1,-2 0,-1 0,-1 1,-2 0,0 1,-1 1,-2 0,0 0,0 1,0 1,-1 1,1 3,1 2,0 4,-1 4,-4 0,-1 0,-1 0,-2 1,0 4,0 5,0 1,0 0,1 1,2 1,2 4,3 5,1 1,0 1,-1 2,-1 1,0 1,0 2,1 0,0 2,1 2,2 1,1 -1,1 -1,3 0,2 1,4 4,4 1,0 1,0 2,0 0,1 0,2 0,2 0,1 0,1 0,2 0,1 0,1 0,2 -1,0 -1,0 -1,0 -1,0 -2,1 -3,2 -1,1 0,3 1,4 1,1 2,1 0,3 0,0 -1,1 -1,2 -1,0 -1,1 -2,0z"/>
    <circle class="fil8 str2" cx="94" cy="146" r="9"/>
   </g>
   <g>
    <path class="fil14" d="M124 132c1,-1 1,-3 1,-4 0,-1 -1,-3 -2,-4 -3,-2 -7,-1 -9,1 -2,3 -1,7 2,9 3,2 6,1 8,-2zm-4 10c0,0 -2,0 -3,0 -1,0 -1,-1 -1,-1 0,-2 -2,-4 -4,-3 0,0 -1,1 -1,1 -1,0 -2,-2 -2,-2 -1,-1 -1,-1 0,-2 0,-1 1,-1 1,-3 0,0 -1,-1 -2,-2 -1,0 -1,0 -2,0 0,-1 0,-1 0,-2 0,0 0,-1 0,-1 0,-1 1,-1 1,-1 3,0 4,-2 3,-4 0,-1 -1,-1 0,-2 3,-3 2,-1 4,-1 1,1 1,1 2,0 0,0 1,0 2,-2 0,0 0,-1 0,-1 1,0 3,0 3,0 1,0 1,1 1,1 0,2 2,4 4,3 1,0 1,-1 1,-1 1,0 2,2 3,2 0,1 0,1 0,2 -1,0 -1,0 -1,1 -1,1 0,3 1,4 2,0 2,-1 2,3 0,0 0,1 -1,1 -2,0 -4,2 -3,4 1,1 1,1 0,2 0,1 -1,1 -1,1 -1,1 -1,1 -1,0 -1,0 -1,0 -1,0 -1,-1 -4,-1 -4,1 -1,1 -1,1 -1,2z"/>
    <circle class="fil8 str3" cx="119" cy="129" r="6"/>
   </g>
  </g>
 </g>
</svg>
