<?xml version="1.0" encoding="UTF-8"?>
<!DOCTYPE svg PUBLIC "-//W3C//DTD SVG 1.1//EN" "http://www.w3.org/Graphics/SVG/1.1/DTD/svg11.dtd">
<!-- Creator: CorelDRAW X7 -->
<svg xmlns="http://www.w3.org/2000/svg" xml:space="preserve" width="280px" height="66px" version="1.1" style="shape-rendering:geometricPrecision; text-rendering:geometricPrecision; image-rendering:optimizeQuality; fill-rule:evenodd; clip-rule:evenodd"
viewBox="0 0 2800000 661096"
 xmlns:xlink="http://www.w3.org/1999/xlink">
 <defs>
  <style type="text/css">
   <![CDATA[
    .str0 {stroke:#FEFEFE;stroke-width:19440.6}
    .str1 {stroke:#FEFEFE;stroke-width:8750}
    .fil0 {fill:#FEFEFE}
    .fil1 {fill:#FEFEFE;fill-rule:nonzero}
   ]]>
  </style>
 </defs>
 <g id="Layer_x0020_1">
  <metadata id="CorelCorpID_0Corel-Layer"/>
  <g id="_408811064">
   <path class="fil0" d="M601120 459685l-420000 0c-826,-1252 -746,-1183 -723,-4409 425,-56336 172,-113682 69,-170430l-20532 0 0 151758c0,8165 -987,26882 230,33818l461913 0c953,-5432 229,-126186 229,-135189l0 -135568c0,-8107 1470,-25388 -1940,-31474 -5168,-9187 -12448,-8636 -25274,-8636l-310441 0 0 18718c115438,-184 313403,-437 317044,493 872,10473 126,24356 126,35207l0 175988c0,2227 930,67267 -701,69724zm-179443 -288394c-1769,700 -1884,861 -4433,861 -8555,0 -51868,1057 -56680,-861 -677,-3319 -310,-4903 3813,-4903l52867 0c4524,0 5225,1010 4433,4903z"/>
   <path class="fil0" d="M128930 512174l523381 -12 19131 -37515 -211298 -115c-4662,0 -4455,6144 -8084,6844l-120639 0c-4777,0 -4823,-6200 -8084,-6844l-212618 196 18211 37446z"/>
   <g>
    <g>
     <polygon class="fil1" points="557497,316814 589982,316814 589982,304057 458927,304057 458927,316814 530156,316814 530156,430920 557497,430920 "/>
     <polygon class="fil1" points="491022,430966 517961,430966 517961,357119 491022,357119 "/>
     <ellipse class="fil0" cx="504564" cy="337376" rx="13544" ry="13712"/>
    </g>
    <g>
     <path class="fil0" d="M458801 228396l12436 0 0 12734 -12436 12551 0 -25285zm12436 22116l0 25170 -11828 -12677 11828 -12493zm0 34839l0 12493 -12436 0 0 -25044 12436 12551z"/>
     <polygon class="fil0" points="492549,297557 458548,263258 493250,228235 509062,228235 475738,263258 508384,297557 "/>
     <path class="fil1" d="M581714 248330l0 3169c-1860,-2549 -4558,-4042 -8222,-4042 -8003,0 -13871,7212 -13871,15801 0,8589 5868,15915 13871,15915 3664,0 6362,-1607 8222,-4157l0 7774c0,4410 -2423,6660 -6361,6660 -3721,0 -5363,-1745 -6431,-3927l-7211 4605c2584,5098 7498,7533 13355,7533 7498,0 14882,-4421 14882,-14871l0 -34460 -8234 0zm-6821 22151c-3996,0 -6820,-2929 -6820,-7223 0,-4295 2824,-7211 6820,-7211 4008,0 6821,2916 6821,7211 0,4294 -2813,7223 -6821,7223z"/>
     <path class="fil1" d="M513655 248353l0 2917c-1872,-2366 -4674,-3790 -8475,-3790 -7475,0 -13630,7143 -13630,16409 0,9267 6155,16421 13630,16421 3801,0 6603,-1435 8475,-3801l0 2928 8555 0 0 -31084 -8555 0zm-6775 23127c-3939,0 -6775,-2928 -6775,-7591 0,-4662 2836,-7578 6775,-7578 3939,0 6775,2916 6775,7578 0,4663 -2836,7591 -6775,7591z"/>
     <path id="1" class="fil1" d="M545164 247480c-3755,0 -6603,1493 -8141,3790l0 -2917 -8544 0 0 31084 8544 0 0 -16971c0,-4421 2170,-6408 5305,-6408 2733,0 4949,1803 4949,5661l0 17718 8543 0 0 -19084c0,-8394 -4903,-12873 -10656,-12873z"/>
    </g>
   </g>
  </g>
  <g id="_408810608">
   <path class="fil0" d="M176837 241096c-3847,-5615 -5753,-11437 -6729,-17351 -1676,-10277 930,-20715 6454,-29431 2767,-4352 6958,-8692 11793,-11988 20393,-13917 46873,-6717 58988,11563 7303,11036 8394,23759 6143,32922 -2228,9106 -6637,18143 -17776,25940 -10759,7533 -23838,8279 -32864,6166 -9358,-2204 -18648,-7085 -26009,-17821zm-10736 33059c6120,-5110 11827,-5936 17305,-4053 6901,2388 12137,9266 11471,17913 -115,1470 103,2986 1654,4168 2170,1654 13090,2079 16340,1998 8222,-195 5971,-2893 7314,-8198 1034,-4065 4031,-8050 7889,-10278 6166,-3571 12666,-2468 16834,-103 4008,2285 4364,4421 6878,5340 3066,1136 5432,-1355 8257,-3606 2572,-2044 4822,-4111 7039,-6373 2239,-2297 4168,-4375 1561,-7544 -10885,-13229 -1446,-29879 13849,-28708 1424,104 2916,0 4145,-1492 1837,-2228 2102,-13091 2124,-16295 23,-3020 81,-6350 -3594,-7027 -712,-138 -1378,-115 -2158,-207 -2079,-264 -3755,-792 -5696,-1826 -8945,-4731 -11724,-14836 -7418,-22793 2469,-4559 4513,-4869 5512,-6821 1504,-2940 -1068,-5650 -3296,-8463 -1917,-2423 -4145,-4915 -6350,-7051 -1022,-999 -2078,-2250 -3341,-2687 -4639,-1619 -4950,3881 -13137,5432 -9198,1745 -18028,-4169 -19796,-13975 -781,-4272 861,-6396 -1665,-8509 -2400,-1998 -18327,-2698 -20532,-1780 -4226,1757 -1493,5018 -4616,11185 -4375,8635 -14687,11540 -22966,7199 -4111,-2158 -4639,-4340 -6867,-5351 -3181,-1435 -5397,781 -8382,3170 -1872,1504 -8957,7521 -9795,9680 -1746,4547 3858,5224 5362,13136 1711,9026 -3915,18281 -13779,19935 -4318,735 -6488,-908 -8601,1538 -1298,1493 -1631,5765 -1837,7924 -253,2744 -414,5385 -402,8348 11,2824 -207,6350 3537,7154 712,160 1389,114 2170,206 4719,517 9634,3525 12413,7728 4719,7143 2767,15629 -1791,20566 -3526,3835 -5891,3721 275,11506 1975,2515 4180,4995 6339,7097 2193,2112 4570,4581 7751,1917z"/>
   <path class="fil0" d="M176837 241096c-3847,-5615 -5753,-11437 -6729,-17351 -1676,-10277 930,-20715 6454,-29431 2767,-4352 6958,-8692 11793,-11988 20393,-13917 46873,-6717 58988,11563 7303,11036 8394,23759 6143,32922 -2228,9106 -6637,18143 -17776,25940 -10759,7533 -23838,8279 -32864,6166 -9358,-2204 -18648,-7085 -26009,-17821zm-10736 33059c6120,-5110 11827,-5936 17305,-4053 6901,2388 12137,9266 11471,17913 -115,1470 103,2986 1654,4168 2170,1654 13090,2079 16340,1998 8222,-195 5971,-2893 7314,-8198 1034,-4065 4031,-8050 7889,-10278 6166,-3571 12666,-2468 16834,-103 4008,2285 4364,4421 6878,5340 3066,1136 5432,-1355 8257,-3606 2572,-2044 4822,-4111 7039,-6373 2239,-2297 4168,-4375 1561,-7544 -10885,-13229 -1446,-29879 13849,-28708 1424,104 2916,0 4145,-1492 1837,-2228 2102,-13091 2124,-16295 23,-3020 81,-6350 -3594,-7027 -712,-138 -1378,-115 -2158,-207 -2079,-264 -3755,-792 -5696,-1826 -8945,-4731 -11724,-14836 -7418,-22793 2469,-4559 4513,-4869 5512,-6821 1504,-2940 -1068,-5650 -3296,-8463 -1917,-2423 -4145,-4915 -6350,-7051 -1022,-999 -2078,-2250 -3341,-2687 -4639,-1619 -4950,3881 -13137,5432 -9198,1745 -18028,-4169 -19796,-13975 -781,-4272 861,-6396 -1665,-8509 -2400,-1998 -18327,-2698 -20532,-1780 -4226,1757 -1493,5018 -4616,11185 -4375,8635 -14687,11540 -22966,7199 -4111,-2158 -4639,-4340 -6867,-5351 -3181,-1435 -5397,781 -8382,3170 -1872,1504 -8957,7521 -9795,9680 -1746,4547 3858,5224 5362,13136 1711,9026 -3915,18281 -13779,19935 -4318,735 -6488,-908 -8601,1538 -1298,1493 -1631,5765 -1837,7924 -253,2744 -414,5385 -402,8348 11,2824 -207,6350 3537,7154 712,160 1389,114 2170,206 4719,517 9634,3525 12413,7728 4719,7143 2767,15629 -1791,20566 -3526,3835 -5891,3721 275,11506 1975,2515 4180,4995 6339,7097 2193,2112 4570,4581 7751,1917z"/>
   <path class="fil0" d="M242451 312554c11850,-4983 26617,-436 32451,13079 5029,11690 103,26836 -13206,32359 -11758,4869 -26755,126 -32278,-13228 -4892,-11839 -104,-26664 13033,-32210zm-42143 29201c-3077,965 -2813,2791 -2296,5179 459,2193 1114,4467 1894,6683 3124,8899 3836,4352 10105,4628 3664,172 8039,2136 10266,6579 2148,4295 1504,8188 -333,11977 -1228,2538 92,3686 2308,5087 1780,1137 3606,2159 5225,2951 8176,4054 6821,1677 9738,-1917 3180,-3916 7923,-5271 11999,-4433 3881,792 7326,3158 9301,8440 1137,3066 2871,2963 5351,2457 2251,-459 4433,-1113 6661,-1871 8623,-2951 4558,-3698 4788,-9899 356,-9588 10128,-14755 18166,-10300 2423,1344 3686,379 5225,-2009 1366,-2113 4983,-8486 5247,-10656 322,-2676 -2331,-3273 -3835,-4467 -8015,-6316 -5753,-18350 3744,-21416 3054,-987 3008,-2503 2514,-5007 -425,-2124 -1091,-4570 -1837,-6671 -2526,-7177 -3284,-5960 -7050,-5144 -10438,2239 -18247,-8877 -13194,-18098 1401,-2572 80,-3777 -2056,-5190 -1952,-1274 -8842,-5064 -10679,-5167 -2595,-161 -3250,2503 -4398,3984 -3112,4008 -8360,5294 -12137,4467 -3675,-804 -7258,-3169 -9198,-8440 -448,-1228 -1160,-2032 -2113,-2514 -1711,-873 -7774,1205 -9726,1894 -7326,2561 -5845,3468 -5133,6924 2147,10370 -8428,18591 -18086,13286 -2583,-1424 -3869,58 -5270,2239 -1332,2067 -5053,8739 -5122,10691 -92,2492 2550,3204 3985,4352 7912,6339 5489,18419 -4054,21381z"/>
   <path class="fil0" d="M308753 279518c-3869,-5214 -4627,-11839 -3651,-16375 918,-4306 3043,-9198 8290,-13068 10163,-7498 23219,-3961 29500,4594 7475,10196 4019,23195 -4559,29488 -10265,7533 -23103,4088 -29580,-4639zm13768 34586c1505,999 8498,219 10576,-103 2503,-390 3686,-1022 3514,-3456 -551,-8027 7280,-13631 14778,-10415 1551,666 3043,2422 4513,2537 2446,184 6683,-5397 8038,-7268 1114,-1539 2400,-3009 586,-4881 -3296,-3410 -4754,-6292 -3985,-10438 529,-2905 2745,-6533 7097,-7934 1849,-597 4317,-104 5247,-1849 506,-930 437,-3766 368,-5179 -92,-1711 -287,-3617 -574,-5431 -356,-2297 -1068,-3583 -3215,-3468 -8900,471 -13723,-7820 -10725,-14561 2021,-4547 5190,-3800 -299,-8968 -10266,-9691 -7234,-3146 -14101,-666 -1964,712 -3789,678 -5397,448 -2859,-390 -6660,-2905 -8096,-7315 -631,-1929 -68,-4191 -1929,-5121 -1653,-827 -8543,-57 -10633,276 -2744,436 -3307,1297 -3204,3617 368,8130 -7567,13435 -15031,10059 -1722,-781 -2744,-2412 -4559,-2400 -2227,11 -6556,5650 -7888,7452 -1045,1413 -2171,3009 -460,4685 1723,1688 2733,2400 3606,5007 1814,5351 -746,11460 -6706,13389 -3904,1252 -7188,-1964 -5064,12402 333,2216 1011,3617 3238,3513 8911,-436 13665,7820 10760,14515 -1998,4616 -5236,3766 252,9014 1390,1332 2837,2526 4215,3571 1412,1057 2928,2423 4776,919 494,-402 1183,-1390 1918,-1998 5443,-4536 13872,-2607 16570,4673 689,1872 241,4341 1814,5374z"/>
  </g>
  <path class="fil0" d="M629483 231129c2320,0 6293,275 8302,539 1355,184 3009,173 4088,322 6856,895 12253,918 20337,2285 16122,2710 40557,7429 51271,20692 10174,12574 1941,24861 -5523,34483 -4364,5604 -15950,15043 -21554,18982l-16283 10748c-13205,8176 -26284,14227 -40098,21094 -3916,1941 -5891,3054 -10094,4742 -6292,2538 -12034,5283 -18476,7660 -6476,2399 -13308,5362 -19900,7877 -50249,19073 -102875,33691 -155260,45564 -5455,1240 -11231,2584 -16754,3434l-3514 12034c14790,-2308 32084,-6787 46770,-10324 14986,-3651 29132,-7130 43911,-11333 25033,-7108 49687,-14216 74409,-22392 7062,-2342 14102,-4742 21129,-7177 12689,-4409 25400,-9439 37963,-14273 9772,-3766 20841,-8784 30487,-13102 10564,-4720 20910,-9692 31268,-14859 13802,-6901 31153,-16834 43647,-25159l13595 -9657c3640,-2733 11081,-8624 14411,-11988 885,-885 1355,-1080 2217,-1872 3640,-3376 7716,-7969 10966,-11965 1240,-1516 2228,-2929 3307,-4548 2147,-3238 3755,-5867 5489,-9599 1849,-3951 2894,-7751 3250,-11403l0 -5569c-977,-9795 -7131,-18201 -16341,-24711 -6694,-4731 -12872,-7384 -20428,-10381 -3697,-1458 -7533,-2618 -11586,-3801 -31498,-9186 -70276,-11586 -111052,-11586l46 45243z"/>
  <path class="fil0" d="M61112 336657c-2262,1768 -4455,3158 -6694,4983 -3262,2664 -8394,6442 -11460,9290 -10312,9588 -22828,21887 -26411,36435 -620,2527 -953,5007 -999,7418l0 1275c149,6982 2675,13332 7303,18511 8279,9232 17615,13940 29327,18430 2906,1114 5880,2239 8934,3031 20176,4800 23862,6362 45909,9003 8394,1010 16914,1745 25412,2262 8853,528 18074,436 26812,1079l20670 58c7222,-483 15042,-322 22345,-609 41879,-1676 84136,-6005 125521,-12241 6453,-976 13170,-2250 19612,-3054l4352 -12252c-6533,666 -13618,2067 -20267,3008 -34529,4903 -71137,8475 -106022,9209 -10449,219 -35746,288 -45381,-987 -5764,23 -14881,-1148 -20600,-2044 -23368,-2767 -66509,-12861 -58999,-39869 2331,-8417 11839,-20015 18637,-25354 1148,-907 2354,-1941 3433,-2859 4226,-3618 23965,-17799 29706,-20130l0 -53602c-3732,1159 -8623,3778 -12298,5374 -4053,1757 -7900,3720 -11965,5603 -16926,7855 -41109,20784 -56519,31154l-10358 6878z"/>
  <path class="fil0" d="M344775 49503l-8440 11598c-1435,2136 -2756,3904 -4099,5948 -15640,23597 -30189,52190 -41545,78497 -839,1929 -2435,5053 -2883,6993l17673 -69c2824,-5236 6591,-10989 9829,-15616 3388,-4846 12643,-17443 16972,-21049 873,-711 781,-838 1516,-1619 4570,-4937 14560,-11632 21128,-13446 16157,-4490 25412,8222 30223,18453 4375,9336 10117,30912 9967,40684l770 6717 425 6006 379 5730c2606,49916 -5799,106068 -16065,152677 -10048,45645 -23540,88809 -40489,128908l-4731 10725 -2182 4363c-275,1149 -930,2136 -1469,3216 -356,711 -460,987 -816,1699 -574,1160 -264,1022 -1228,1343 390,598 344,184 183,1068l-3571 7120c-1320,2515 -11379,21898 -13205,22885 -276,1252 -4880,8107 -5925,9508l-4318 6052c-815,1182 -1539,1975 -2331,3008 -792,1045 -1458,1906 -2331,3020 -1573,1998 -8199,9497 -9921,10817l-11839 9209c-12103,7223 -23483,6775 -33025,-4880 -3135,-3835 -5397,-8325 -7476,-13263 -1113,-2629 -4765,-13193 -4845,-16030 -3950,-792 -16536,-183 -21370,-183 0,4409 11,8807 -12,13216l976 19142c127,1677 517,4284 598,5995 884,17936 5477,39696 10966,56277 1068,3216 2492,6408 3812,9382 1367,3066 3112,5822 4811,8704l2687 3916c483,631 1011,1309 1539,1906 7154,8187 14733,11885 22323,12505l4708 0c13137,-1034 26089,-10461 36745,-21129 4571,-4570 8590,-9060 12609,-14112l8577 -11219c4479,-6063 14595,-21795 18385,-28753 838,-1539 1573,-2676 2400,-4192 6384,-11483 18177,-34115 22483,-44760l6178 -14101c850,-2584 2216,-5420 3250,-7889 1079,-2561 2032,-4938 3100,-7590 1860,-4593 4616,-10737 5937,-15318 930,-1321 1940,-4973 2583,-6592l1608 -4375 3801 -10748c14687,-41832 27582,-87098 37067,-132570 4937,-23713 9416,-47436 12918,-71918 2756,-19165 4892,-37940 6431,-57288l1343 -19636 689 -18694c-184,-10151 218,-20279 -103,-30522 -310,-9680 -873,-19257 -1826,-28822 -907,-9118 -2136,-18063 -3904,-26893 -850,-4249 -1803,-8314 -2871,-12517 -976,-3904 -2503,-7820 -3422,-11494 -1975,-6821 -7866,-18430 -12356,-23930l-2480 -2860c-3709,-3697 -6786,-6511 -12103,-8635 -2733,-1091 -5615,-1757 -8670,-1963l-4099 0c-1699,103 -3445,355 -5248,746 -8589,1895 -16765,7257 -23482,12666l-8302 7395c-3744,3766 -6718,7509 -9899,10851 -608,643 -631,746 -1137,1378 -447,551 -677,723 -1159,1343 -896,1126 -1516,1930 -2412,3009z"/>
  <path class="fil1" d="M1414560 513976l86478 0 -117596 -360908 -100809 0 -117608 360908 86466 0 17305 -56714 128471 0 17293 56714zm-122052 -134051l40523 -132502 40524 132502 -81047 0z"/>
  <polygon id="1" class="fil1" points="1723394,153068 1723394,348990 1589985,153068 1530687,153068 1530687,513976 1609747,513976 1609747,318054 1743168,513976 1802454,513976 1802454,153068 "/>
  <path id="2" class="fil1" d="M2204196 312899l-173450 0 0 72181 92404 0c-12345,34541 -42487,55681 -88453,55681 -67187,0 -108709,-44852 -108709,-106206 0,-63420 43485,-108272 101796,-108272 39030,0 70161,18556 84491,42280l67210 -40225c-29155,-48458 -84997,-82493 -151207,-82493 -101785,0 -181351,83527 -181351,188194 0,103633 78073,187160 186782,187160 96859,0 170487,-67026 170487,-177365l0 -30935z"/>
  <polygon id="3" class="fil1" points="2372203,153068 2372203,513976 2451263,513976 2451263,153068 "/>
  <polygon id="4" class="fil1" points="2742803,153068 2485850,153068 2485850,232472 2574797,232472 2574797,513976 2653857,513976 2653857,232472 2742803,232472 "/>
  <path class="fil0 str0" d="M871429 336198c976,1423 3766,3950 5167,5374 1814,1837 3434,3490 5248,5339l13377 13424c1206,1217 1723,1653 2664,2618l122569 123843c3445,3491 7062,7579 10714,10771l7958 7946c884,896 1630,2251 3238,2251 25699,0 52316,207 77900,-11 -436,-1022 -8520,-9118 -9979,-10714l-12608 -13297c-907,-999 -1722,-1642 -2664,-2630l-10082 -10817c-1010,-1033 -1734,-1619 -2664,-2641l-5041 -5259c-919,-988 -1619,-1780 -2526,-2779l-53522 -56289c-873,-965 -1792,-1677 -2664,-2630l-61135 -64499c1894,-2573 14548,-15192 18005,-19016 5638,-6258 12689,-13091 18212,-19165l31245 -32945c6488,-7004 14560,-14859 20876,-21806 896,-987 1607,-1814 2515,-2779l18223 -19165c2101,-2032 3330,-3433 5179,-5420l41775 -43899c2136,-1998 3295,-3468 5167,-5431l5122 -5374c-2642,-368 -59505,-81 -66326,-81 -15157,0 -10461,-2090 -19544,7131l-46678 46931c-4490,4570 -8785,8922 -13286,13515 -8279,8440 -18281,18316 -26548,26721l-26698 26882c-8922,9071 -17558,18051 -26560,27019 -965,965 -2412,2182 -3353,3135 -1195,1217 -2159,2205 -3353,3410l-13286 13504c-1929,1964 -5133,4846 -6637,6833z"/>
  <path class="fil0 str1" d="M845845 288210c1389,-792 2606,-2170 3847,-3215l1573 -1320c57,-46 126,-104 172,-150 12620,-11104 25515,-21714 38353,-32634l1504 -1378c58,-46 127,-104 173,-149l2216 -1964c6120,-5604 15261,-13010 21863,-18602 1206,-1011 4100,-2825 4100,-4490l0 -63306 -73801 0 0 127208z"/>
  <path class="fil0 str1" d="M845845 507867l72756 0c792,0 1045,-206 1045,-884l0 -59481c0,-1642 -2745,-3342 -3927,-4341l-23322 -19728c-1608,-1366 -3170,-2572 -4697,-3973 -873,-792 -1102,-1240 -2078,-2067 -907,-758 -1550,-1297 -2446,-2055 -11713,-9910 -24493,-20451 -35976,-30522l-1355 -907 0 123958z"/>
 </g>
</svg>
