<?xml version="1.0" encoding="UTF-8"?>
<!DOCTYPE svg PUBLIC "-//W3C//DTD SVG 1.1//EN" "http://www.w3.org/Graphics/SVG/1.1/DTD/svg11.dtd">
<!-- Creator: CorelDRAW X7 -->
<svg xmlns="http://www.w3.org/2000/svg" xml:space="preserve" width="68px" height="68px" version="1.1" style="shape-rendering:geometricPrecision; text-rendering:geometricPrecision; image-rendering:optimizeQuality; fill-rule:evenodd; clip-rule:evenodd"
viewBox="0 0 680000 680000"
 xmlns:xlink="http://www.w3.org/1999/xlink">
 <defs>
  <style type="text/css">
   <![CDATA[
    .fil0 {fill:#FEFEFE}
    .fil1 {fill:#FEFEFE;fill-rule:nonzero}
   ]]>
  </style>
 </defs>
 <g id="Layer_x0020_1">
  <metadata id="CorelCorpID_0Corel-Layer"/>
  <g id="_408056192">
   <g>
    <path class="fil0" d="M511500 450625l-362087 0c-721,-1075 -650,-1028 -638,-3804 366,-48568 154,-98010 59,-146932l-17693 0 0 130834c0,7039 -851,23173 201,29150l398229 0c827,-4677 201,-108782 201,-116542l0 -116885c0,-6992 1276,-21886 -1677,-27130 -4453,-7926 -10725,-7453 -21780,-7453l-267656 0 0 16146c99534,-154 270207,-378 273337,425 756,9024 106,21000 106,30343l0 151728c0,1925 804,57994 -602,60120zm-154704 -248640c-1524,602 -1618,744 -3827,744 -7370,0 -44706,910 -48852,-744 -590,-2858 -271,-4228 3284,-4228l45568 0c3909,0 4512,874 3827,4228z"/>
    <path class="fil0" d="M104412 495874l451227 -12 16488 -32339 -182153 -95c-4028,0 -3851,5292 -6981,5894l-104010 0c-4122,0 -4158,-5339 -6969,-5894l-183299 165 15697 32281z"/>
    <g>
     <g>
      <polygon class="fil1" points="473893,327445 501909,327445 501909,316448 388922,316448 388922,327445 450329,327445 450329,425821 473893,425821 "/>
      <polygon class="fil1" points="416584,425868 439805,425868 439805,362205 416584,362205 "/>
      <ellipse class="fil0" cx="428261" cy="345174" rx="11677" ry="11822"/>
     </g>
     <g>
      <path class="fil0" d="M388804 251226l10725 0 0 10973 -10725 10819 0 -21792zm10725 19064l0 21697 -10193 -10925 10193 -10772zm0 30024l0 10784 -10725 0 0 -21603 10725 10819z"/>
      <polygon class="fil0" points="417907,310850 388592,281274 418510,251085 432140,251085 403415,281274 431561,310850 "/>
      <path class="fil1" d="M494775 268400l0 2740c-1606,-2209 -3933,-3496 -7087,-3496 -6909,0 -11964,6225 -11964,13630 0,7406 5055,13725 11964,13725 3154,0 5481,-1382 7087,-3591l0 6697c0,3815 -2090,5741 -5492,5741 -3201,0 -4618,-1500 -5540,-3378l-6212 3968c2232,4406 6461,6496 11516,6496 6461,0 12827,-3815 12827,-12827l0 -29705 -7099 0zm-5882 19099c-3449,0 -5870,-2528 -5870,-6225 0,-3697 2421,-6224 5870,-6224 3449,0 5882,2527 5882,6224 0,3697 -2433,6225 -5882,6225z"/>
      <path class="fil1" d="M436109 268412l0 2516c-1619,-2032 -4028,-3272 -7323,-3272 -6426,0 -11741,6177 -11741,14162 0,7984 5315,14161 11741,14161 3295,0 5704,-1240 7323,-3271l0 2515 7370 0 0 -26811 -7370 0zm-5847 19949c-3390,0 -5847,-2528 -5847,-6543 0,-4028 2457,-6544 5847,-6544 3390,0 5847,2516 5847,6544 0,4015 -2457,6543 -5847,6543z"/>
      <path id="1" class="fil1" d="M463275 267656c-3249,0 -5705,1287 -7028,3272l0 -2516 -7370 0 0 26811 7370 0 0 -14634c0,-3815 1866,-5528 4571,-5528 2362,0 4275,1560 4275,4879l0 15283 7371 0 0 -16465c0,-7240 -4229,-11102 -9189,-11102z"/>
     </g>
    </g>
   </g>
   <g>
    <path class="fil0" d="M145716 262164c-3319,-4831 -4961,-9863 -5799,-14965 -1453,-8859 791,-17847 5563,-25371 2386,-3744 6000,-7488 10169,-10335 17575,-11988 40407,-5787 50848,9981 6307,9508 7240,20480 5303,28370 -1925,7855 -5728,15650 -15331,22371 -9272,6496 -20552,7146 -28335,5315 -8067,-1902 -16075,-6106 -22418,-15366zm-9260 28512c5280,-4417 10193,-5126 14929,-3496 5941,2055 10453,7984 9875,15437 -95,1276 106,2575 1429,3591 1866,1429 11291,1795 14091,1724 7086,-165 5149,-2492 6307,-7063 886,-3508 3484,-6945 6803,-8870 5315,-3071 10914,-2126 14504,-83 3461,1961 3768,3815 5930,4607 2645,968 4689,-1170 7122,-3107 2221,-1771 4169,-3555 6071,-5504 1937,-1972 3591,-3768 1346,-6496 -9390,-11410 -1252,-25760 11942,-24757 1228,95 2516,0 3579,-1287 1582,-1913 1807,-11280 1818,-14044 24,-2598 71,-5480 -3094,-6059 -614,-118 -1181,-94 -1854,-177 -1796,-224 -3237,-685 -4914,-1571 -7713,-4087 -10110,-12803 -6402,-19654 2138,-3933 3898,-4193 4760,-5882 1299,-2539 -921,-4866 -2846,-7299 -1642,-2091 -3579,-4229 -5469,-6071 -886,-862 -1795,-1949 -2882,-2327 -4004,-1394 -4276,3354 -11327,4689 -7937,1500 -15544,-3602 -17067,-12048 -673,-3685 732,-5515 -1441,-7334 -2067,-1725 -15792,-2327 -17705,-1536 -3638,1512 -1276,4323 -3969,9650 -3780,7429 -12662,9933 -19796,6189 -3555,-1854 -4004,-3732 -5929,-4606 -2740,-1229 -4654,673 -7228,2740 -1607,1287 -7725,6473 -8434,8339 -1512,3921 3319,4512 4619,11327 1476,7772 -3379,15756 -11883,17185 -3720,626 -5598,-779 -7417,1335 -1110,1287 -1406,4961 -1583,6827 -224,2362 -354,4642 -342,7193 11,2445 -189,5469 3047,6177 614,130 1193,95 1866,166 4075,448 8303,3035 10701,6661 4075,6166 2386,13477 -1535,17741 -3048,3295 -5079,3201 224,9921 1713,2162 3614,4300 5481,6107 1878,1830 3933,3956 6673,1665z"/>
    <path class="fil0" d="M145716 262164c-3319,-4831 -4961,-9863 -5799,-14965 -1453,-8859 791,-17847 5563,-25371 2386,-3744 6000,-7488 10169,-10335 17575,-11988 40407,-5787 50848,9981 6307,9508 7240,20480 5303,28370 -1925,7855 -5728,15650 -15331,22371 -9272,6496 -20552,7146 -28335,5315 -8067,-1902 -16075,-6106 -22418,-15366zm-9260 28512c5280,-4417 10193,-5126 14929,-3496 5941,2055 10453,7984 9875,15437 -95,1276 106,2575 1429,3591 1866,1429 11291,1795 14091,1724 7086,-165 5149,-2492 6307,-7063 886,-3508 3484,-6945 6803,-8870 5315,-3071 10914,-2126 14504,-83 3461,1961 3768,3815 5930,4607 2645,968 4689,-1170 7122,-3107 2221,-1771 4169,-3555 6071,-5504 1937,-1972 3591,-3768 1346,-6496 -9390,-11410 -1252,-25760 11942,-24757 1228,95 2516,0 3579,-1287 1582,-1913 1807,-11280 1818,-14044 24,-2598 71,-5480 -3094,-6059 -614,-118 -1181,-94 -1854,-177 -1796,-224 -3237,-685 -4914,-1571 -7713,-4087 -10110,-12803 -6402,-19654 2138,-3933 3898,-4193 4760,-5882 1299,-2539 -921,-4866 -2846,-7299 -1642,-2091 -3579,-4229 -5469,-6071 -886,-862 -1795,-1949 -2882,-2327 -4004,-1394 -4276,3354 -11327,4689 -7937,1500 -15544,-3602 -17067,-12048 -673,-3685 732,-5515 -1441,-7334 -2067,-1725 -15792,-2327 -17705,-1536 -3638,1512 -1276,4323 -3969,9650 -3780,7429 -12662,9933 -19796,6189 -3555,-1854 -4004,-3732 -5929,-4606 -2740,-1229 -4654,673 -7228,2740 -1607,1287 -7725,6473 -8434,8339 -1512,3921 3319,4512 4619,11327 1476,7772 -3379,15756 -11883,17185 -3720,626 -5598,-779 -7417,1335 -1110,1287 -1406,4961 -1583,6827 -224,2362 -354,4642 -342,7193 11,2445 -189,5469 3047,6177 614,130 1193,95 1866,166 4075,448 8303,3035 10701,6661 4075,6166 2386,13477 -1535,17741 -3048,3295 -5079,3201 224,9921 1713,2162 3614,4300 5481,6107 1878,1830 3933,3956 6673,1665z"/>
    <path class="fil0" d="M202280 323783c10217,-4311 22950,-390 27981,11268 4335,10075 95,23138 -11386,27898 -10134,4193 -23067,107 -27827,-11409 -4217,-10205 -95,-22985 11232,-27757zm-36331 25170c-2658,827 -2422,2398 -1985,4465 402,1889 969,3850 1642,5764 2693,7665 3296,3744 8705,3992 3154,142 6933,1831 8847,5657 1866,3709 1311,7064 -272,10335 -1063,2185 71,3178 1973,4382 1547,981 3118,1866 4512,2551 7051,3497 5882,1441 8397,-1653 2741,-3378 6839,-4547 10347,-3827 3343,685 6319,2717 8008,7276 992,2646 2480,2551 4618,2126 1949,-402 3827,-969 5752,-1618 7430,-2540 3922,-3189 4123,-8528 307,-8280 8728,-12733 15661,-8882 2091,1157 3178,319 4500,-1736 1182,-1819 4300,-7323 4524,-9190 284,-2315 -1996,-2823 -3307,-3850 -6898,-5445 -4949,-15815 3236,-18473 2622,-850 2599,-2150 2162,-4311 -366,-1831 -945,-3933 -1583,-5752 -2173,-6189 -2823,-5126 -6083,-4429 -9000,1925 -15721,-7654 -11374,-15603 1217,-2221 71,-3260 -1772,-4477 -1677,-1098 -7618,-4358 -9201,-4452 -2244,-142 -2799,2161 -3791,3437 -2681,3449 -7217,4559 -10465,3850 -3165,-697 -6260,-2740 -7925,-7276 -390,-1063 -1004,-1748 -1819,-2173 -1488,-756 -6709,1039 -8386,1630 -6319,2209 -5044,2988 -4430,5977 1843,8941 -7275,16027 -15590,11456 -2233,-1228 -3331,48 -4548,1926 -1145,1783 -4358,7535 -4417,9213 -83,2149 2197,2763 3437,3756 6827,5468 4724,15874 -3496,18437z"/>
    <path class="fil0" d="M259447 295294c-3331,-4500 -3992,-10205 -3154,-14126 792,-3709 2622,-7925 7146,-11268 8764,-6461 20020,-3402 25430,3969 6449,8787 3472,19996 -3921,25417 -8847,6497 -19914,3532 -25501,-3992zm11858 29824c1300,862 7335,177 9119,-95 2161,-342 3189,-886 3035,-2976 -472,-6933 6272,-11752 12745,-8989 1334,579 2622,2103 3897,2186 2103,165 5753,-4642 6922,-6260 968,-1323 2067,-2587 508,-4205 -2835,-2941 -4099,-5422 -3437,-9000 460,-2504 2374,-5634 6118,-6839 1594,-520 3720,-95 4524,-1595 437,-803 378,-3248 319,-4464 -83,-1477 -248,-3119 -497,-4690 -307,-1972 -921,-3082 -2775,-2988 -7678,402 -11835,-6744 -9248,-12555 1748,-3922 4476,-3272 -248,-7737 -8859,-8338 -6249,-2704 -12166,-567 -1689,615 -3260,579 -4654,390 -2457,-342 -5740,-2504 -6980,-6307 -544,-1665 -47,-3614 -1666,-4417 -1417,-709 -7358,-48 -9165,236 -2362,378 -2847,1122 -2752,3118 319,7016 -6532,11587 -12957,8669 -1488,-673 -2374,-2078 -3945,-2066 -1914,11 -5646,4878 -6792,6437 -909,1204 -1878,2586 -401,4027 1488,1465 2350,2079 3118,4311 1559,4630 -650,9886 -5788,11552 -3366,1087 -6201,-1689 -4358,10689 283,1914 862,3118 2776,3024 7689,-366 11799,6744 9283,12520 -1724,3980 -4512,3248 213,7772 1205,1157 2445,2185 3638,3071 1228,921 2527,2102 4122,803 425,-343 1016,-1193 1642,-1725 4701,-3909 11965,-2244 14291,4040 591,1606 213,3732 1559,4630z"/>
   </g>
   <path class="fil0" d="M535961 253577c1996,0 5422,236 7158,460 1169,166 2598,154 3520,272 5917,780 10559,803 17539,1973 13891,2338 34962,6413 44198,17835 8764,10854 1677,21449 -4760,29729 -3756,4842 -13760,12968 -18579,16382l-14032 9260c-11398,7051 -22666,12272 -34583,18178 -3378,1677 -5079,2645 -8693,4098 -5433,2185 -10382,4547 -15945,6603 -5575,2067 -11469,4618 -17150,6791 -43313,16441 -88692,29044 -133858,39284 -4701,1063 -9685,2221 -14445,2953l-3024 10382c12745,-1984 27662,-5858 40324,-8905 12910,-3154 25111,-6142 37855,-9768 21579,-6130 42828,-12249 64147,-19300 6095,-2020 12166,-4087 18225,-6201 10937,-3803 21898,-8126 32717,-12295 8434,-3249 17977,-7571 26292,-11292 9107,-4075 18024,-8362 26954,-12815 11906,-5953 26870,-14516 37631,-21698l11728 -8327c3130,-2350 9544,-7429 12426,-10323 756,-767 1169,-945 1901,-1618 3142,-2917 6650,-6874 9461,-10323 1063,-1299 1914,-2516 2847,-3921 1854,-2788 3236,-5055 4736,-8268 1583,-3402 2492,-6685 2799,-9827l0 -4807c-850,-8445 -6153,-15698 -14091,-21308 -5764,-4087 -11090,-6354 -17610,-8941 -3189,-1264 -6485,-2268 -9993,-3284 -27154,-7913 -60580,-9992 -95730,-9992l35 39013z"/>
   <path class="fil0" d="M45946 344559c-1961,1512 -3851,2717 -5776,4299 -2811,2292 -7240,5540 -9874,7997 -8894,8268 -19689,18874 -22772,31418 -532,2173 -827,4311 -862,6390l0 1110c118,6012 2303,11481 6295,15945 7134,7961 15178,12024 25288,15898 2492,957 5067,1925 7701,2610 17398,4146 20575,5481 39580,7761 7228,874 14575,1500 21898,1948 7642,461 15591,378 23126,933l17824 48c6224,-414 12968,-272 19264,-520 36095,-1453 72533,-5173 108203,-10559 5563,-839 11363,-1937 16914,-2622l3756 -10571c-5634,578 -11741,1783 -17469,2598 -29776,4228 -61336,7311 -91420,7937 -9000,189 -30815,248 -39119,-850 -4972,12 -12827,-992 -17764,-1772 -20138,-2374 -57332,-11079 -50859,-34371 2008,-7252 10217,-17256 16063,-21851 992,-779 2044,-1665 2965,-2456 3649,-3130 20658,-15355 25607,-17363l0 -46218c-3213,1004 -7430,3260 -10595,4630 -3508,1524 -6815,3213 -10323,4843 -14587,6768 -35446,17918 -48722,26859l-8929 5929z"/>
   <path class="fil0" d="M290499 96983l-7276 10004c-1240,1842 -2374,3366 -3531,5126 -13489,20351 -26033,44989 -35824,67679 -721,1665 -2103,4358 -2481,6023l15237 -47c2433,-4524 5681,-9484 8469,-13465 2929,-4193 10902,-15047 14634,-18154 756,-614 673,-720 1311,-1405 3945,-4252 12544,-10016 18213,-11587 13926,-3862 21910,7098 26056,15910 3779,8055 8728,26658 8587,35079l673 5788 366 5185 331 4937c2244,43029 -5008,91443 -13855,131625 -8669,39355 -20292,76573 -34902,111144l-4087 9237 -1878 3768c-236,980 -803,1842 -1264,2775 -307,614 -401,851 -709,1465 -484,992 -224,874 -1063,1157 343,508 308,154 166,910l-3083 6142c-1134,2173 -9815,18886 -11386,19736 -236,1087 -4205,6993 -5103,8197l-3732 5221c-697,1016 -1323,1701 -2008,2587 -685,897 -1252,1642 -2008,2598 -1358,1725 -7063,8197 -8551,9331l-10205 7937c-10429,6237 -20245,5847 -28465,-4204 -2705,-3308 -4666,-7182 -6461,-11434 -945,-2268 -4099,-11374 -4169,-13819 -3402,-685 -14257,-154 -18426,-154 0,3792 12,7595 0,11387l827 16500c118,1453 449,3697 519,5173 768,15473 4725,34229 9461,48521 910,2776 2150,5528 3284,8091 1169,2634 2681,5020 4146,7500l2315 3378c425,543 874,1122 1334,1642 6166,7051 12697,10252 19241,10783l4051 0c11327,-897 22501,-9023 31690,-18224 3933,-3934 7406,-7796 10866,-12154l7394 -9674c3862,-5232 12579,-18791 15851,-24792 720,-1322 1358,-2315 2079,-3614 5492,-9909 15661,-29410 19382,-38599l5315 -12154c744,-2220 1913,-4677 2811,-6803 933,-2197 1748,-4252 2669,-6544 1595,-3957 3981,-9248 5115,-13193 803,-1146 1677,-4287 2232,-5693l1382 -3768 3284 -9260c12661,-36072 23776,-75096 31949,-114298 4264,-20445 8126,-40902 11138,-62009 2374,-16524 4217,-32706 5540,-49395l1169 -16914 591 -16122c-154,-8764 189,-17493 -95,-26316 -260,-8350 -756,-16606 -1571,-24851 -779,-7866 -1842,-15579 -3366,-23185 -732,-3662 -1559,-7170 -2469,-10796 -850,-3366 -2161,-6732 -2952,-9909 -1701,-5871 -6780,-15887 -10654,-20623l-2138 -2469c-3201,-3189 -5847,-5610 -10441,-7441 -2351,-945 -4843,-1523 -7465,-1700l-3543 0c-1465,94 -2965,307 -4524,649 -7406,1630 -14457,6260 -20233,10914l-7169 6378c-3225,3248 -5788,6472 -8528,9354 -532,556 -543,650 -980,1182 -390,484 -591,626 -1004,1169 -768,968 -1311,1665 -2079,2587z"/>
  </g>
 </g>
</svg>
