<?xml version="1.0" encoding="UTF-8"?>
<!DOCTYPE svg PUBLIC "-//W3C//DTD SVG 1.1//EN" "http://www.w3.org/Graphics/SVG/1.1/DTD/svg11.dtd">
<!-- Creator: CorelDRAW X7 -->
<svg xmlns="http://www.w3.org/2000/svg" xml:space="preserve" width="1000px" height="110px" version="1.1" style="shape-rendering:geometricPrecision; text-rendering:geometricPrecision; image-rendering:optimizeQuality; fill-rule:evenodd; clip-rule:evenodd"
viewBox="0 0 100000 11000"
 xmlns:xlink="http://www.w3.org/1999/xlink">
 <defs>
  <style type="text/css">
   <![CDATA[
    .fil0 {fill:#FFFFFF}
   ]]>
  </style>
 </defs>
 <g id="Layer_x0020_1">
  <metadata id="CorelCorpID_0Corel-Layer"/>
  <path class="fil0" d="M0 11025l100026 0 0 -8992 -1119 288c-113,27 -325,55 -435,85l-780 211c-288,79 -491,132 -780,210l-4563 1280c-562,151 -984,293 -1541,441 -302,80 -502,164 -760,232l-3042 872c-158,42 -213,55 -371,98 -172,47 -281,98 -396,127 -211,53 -179,34 -368,101l-2770 667c-255,70 -576,137 -809,180 -294,54 -539,115 -823,164l-1175 228c-161,29 -302,79 -423,97l-1697 275c-1174,167 -2290,312 -3475,461 -1423,179 -3931,387 -5401,381 -364,-2 -532,59 -923,56 -1421,-7 -3602,96 -4786,-47l-2805 -134c-249,-36 -618,-26 -909,-71 -581,-90 -1186,-104 -1735,-179l-6750 -1082c-553,-119 -1099,-230 -1614,-364 -909,-236 -1819,-398 -2736,-703 -143,-49 -291,-80 -410,-112 -1948,-521 -3310,-1044 -5154,-1693 -264,-94 -471,-170 -731,-263 -260,-93 -433,-172 -681,-262 -245,-89 -481,-153 -746,-247l-3802 -1159c-973,-280 -2142,-587 -3145,-761l-1607 -316c-301,-33 -536,-93 -843,-142l-5279 -566c-940,-114 -4772,-62 -5696,-9 -223,13 -188,44 -411,56 -166,10 -348,-10 -514,0l-2636 259c-302,43 -581,49 -881,102 -296,51 -573,97 -854,131l-4121 762c-309,63 -534,76 -828,158l-2365 550c-189,46 -222,85 -353,118 -174,43 -256,46 -427,93l-3103 861c-637,199 -1687,450 -2453,667l0 6891z"/>
 </g>
</svg>
