<?xml version="1.0" encoding="UTF-8"?>
<!DOCTYPE svg PUBLIC "-//W3C//DTD SVG 1.1//EN" "http://www.w3.org/Graphics/SVG/1.1/DTD/svg11.dtd">
<!-- Creator: CorelDRAW X7 -->
<svg xmlns="http://www.w3.org/2000/svg" xml:space="preserve" width="23.7912mm" height="23.7066mm" version="1.1" style="shape-rendering:geometricPrecision; text-rendering:geometricPrecision; image-rendering:optimizeQuality; fill-rule:evenodd; clip-rule:evenodd"
viewBox="0 0 2379 2371"
 xmlns:xlink="http://www.w3.org/1999/xlink">
 <defs>
  <style type="text/css">
   <![CDATA[
    .fil1 {fill:#087EBF}
    .fil2 {fill:#FEFEFE}
    .fil0 {fill:white}
   ]]>
  </style>
 </defs>
 <g id="Layer_x0020_1">
  <metadata id="CorelCorpID_0Corel-Layer"/>
  <g id="_636981568" filter="url(#filter0_d)">
   <path class="fil0" d="M212 -2l1955 0c117,0 212,95 212,212l0 1951c0,117 -95,211 -212,211l-1955 0c-117,0 -211,-94 -211,-211l0 -1951c0,-117 94,-212 211,-212z"/>
  </g>
  <g id="_636981760" filter="url(#filter0_d)">
   <path class="fil0" d="M212 -2l1955 0c117,0 212,95 212,212l0 1951c0,117 -95,211 -212,211l-1955 0c-117,0 -211,-94 -211,-211l0 -1951c0,-117 94,-212 211,-212z"/>
  </g>
  <g id="_637015072">
   <path class="fil1" d="M562 1805c18,-24 167,-104 194,-113 10,13 20,36 27,52 25,49 62,100 94,144l53 66c19,23 95,95 96,97 -168,-35 -270,-88 -395,-185 -7,-5 -18,-14 -24,-20l-45 -41zm818 209c8,-7 13,-12 21,-20 7,-9 13,-11 20,-20 7,-9 12,-14 20,-22l55 -68c37,-50 101,-147 122,-206 42,12 124,57 164,82 12,8 39,22 46,34l-155 128c-18,12 -38,24 -58,35 -66,37 -126,60 -200,80 -23,7 -55,11 -75,17l40 -40zm-554 -352c25,-6 49,-16 75,-23 85,-24 162,-36 252,-41l0 458c-10,-4 -19,-13 -29,-20 -55,-46 -66,-61 -116,-107l-53 -62c-4,-5 -5,-7 -10,-12 -34,-45 -103,-145 -119,-193zm401 -65c109,6 225,19 321,55 -18,40 -41,82 -63,115 -13,20 -22,35 -36,54 -29,41 -89,112 -125,145 -9,8 -17,14 -24,22 -10,11 -14,12 -24,21 -8,8 -14,13 -23,20l-26 19 0 -451zm0 -344l423 0c-4,76 -38,273 -73,330 -22,-5 -54,-17 -80,-24 -86,-21 -181,-35 -270,-36l0 -270zm-507 1l433 -1 -2 270c-57,10 -98,5 -188,24 -30,7 -56,13 -86,21 -27,8 -56,20 -80,26 -14,-18 -44,-126 -51,-159 -12,-51 -26,-128 -26,-181zm929 354c45,-145 64,-190 75,-355l345 0c-9,96 -31,191 -66,271 -24,55 -54,115 -88,162 -11,16 -28,35 -34,49 -16,-6 -41,-26 -57,-36 -40,-26 -77,-42 -117,-64 -16,-8 -47,-18 -58,-27zm-994 -250c5,32 12,64 18,95 12,52 52,167 53,171 -72,22 -196,114 -216,123 -4,-7 -13,-17 -19,-25 -25,-32 -31,-45 -53,-77 -66,-96 -121,-270 -127,-391 48,2 315,-5 334,2 5,25 6,72 10,102zm572 -451c66,-1 134,-9 198,-21 30,-6 60,-13 88,-21 24,-7 63,-22 83,-25 33,65 57,259 56,339l-425 0 0 -272zm-510 273c1,-65 6,-128 17,-191 6,-34 29,-139 44,-162 26,7 57,21 85,30 91,27 194,46 290,49l0 273 -436 1zm949 -370c73,-18 236,-136 241,-138 15,34 62,76 115,221 28,77 52,196 49,286l-344 0c-3,-101 -13,-188 -37,-285 -7,-27 -19,-58 -24,-84zm-1358 370c2,-136 38,-299 108,-417 12,-20 20,-36 33,-54l33 -51 109 75 116 65c-7,28 -18,57 -26,86 -23,88 -40,206 -38,296l-335 0zm919 -858l108 93c35,35 51,56 81,91 49,57 130,190 154,263 -99,44 -236,56 -343,64l0 -511zm-422 435c3,-22 54,-114 66,-133 22,-36 85,-127 114,-156l59 -64c14,-14 61,-53 79,-68 4,-3 9,-8 14,-11l16 -11 0 518c-64,-3 -127,-12 -188,-26 -42,-9 -127,-31 -160,-49zm-274 -155c5,-9 3,-5 12,-14 43,-48 90,-88 142,-126 96,-68 215,-118 341,-143l-87 88c-28,35 -51,57 -78,98l-69 106c-11,18 -19,38 -30,57 -6,11 -9,18 -14,29l-10 23c-3,6 0,2 -4,6 -35,-14 -75,-39 -106,-57 -28,-17 -86,-61 -97,-67zm1108 139c-15,-58 -93,-183 -128,-233 -26,-37 -91,-115 -123,-146l-43 -40c-1,0 -1,-1 -2,-1l-2 -4c104,14 223,65 299,110 64,38 91,63 145,108 9,8 17,15 25,24l49 53c-1,1 -1,1 -2,2l-10 9c-53,38 -151,99 -208,118zm-517 -510c-100,7 -201,31 -292,68 -85,34 -196,99 -260,157l-62 58c-191,202 -292,449 -272,740 34,505 472,923 1023,885 508,-36 922,-473 884,-1023 -10,-154 -68,-331 -148,-448 -8,-12 -15,-24 -24,-36 -9,-12 -16,-21 -25,-34 -40,-53 -50,-58 -86,-95 -35,-35 -52,-51 -95,-82 -24,-18 -45,-32 -71,-49 -44,-29 -105,-59 -160,-80 -123,-47 -268,-69 -412,-61z"/>
   <path class="fil2" d="M308 1180l335 0c-2,-90 15,-208 38,-296 8,-29 19,-58 26,-86l-116 -65 -109 -75 -33 51c-13,18 -21,34 -33,54 -70,118 -106,281 -108,417z"/>
   <path class="fil2" d="M1666 810c5,26 17,57 24,84 24,97 34,184 37,285l344 0c3,-90 -21,-209 -49,-286 -53,-145 -100,-187 -115,-221 -5,2 -168,120 -241,138z"/>
   <path class="fil2" d="M1649 1608c11,9 42,19 58,27 40,22 77,38 117,64 16,10 41,30 57,36 6,-14 23,-33 34,-49 34,-47 64,-107 88,-162 35,-80 57,-175 66,-271l-345 0c-11,165 -30,210 -75,355z"/>
   <path class="fil2" d="M510 1747c20,-9 144,-101 216,-123 -1,-4 -41,-119 -53,-171 -6,-31 -13,-63 -18,-95 -4,-30 -5,-77 -10,-102 -19,-7 -286,0 -334,-2 6,121 61,295 127,391 22,32 28,45 53,77 6,8 15,18 19,25z"/>
   <path class="fil2" d="M717 1180l436 -1 0 -273c-96,-3 -199,-22 -290,-49 -28,-9 -59,-23 -85,-30 -15,23 -38,128 -44,162 -11,63 -16,126 -17,191z"/>
   <path class="fil2" d="M797 1594c24,-6 53,-18 80,-26 30,-8 56,-14 86,-21 90,-19 131,-14 188,-24l2 -270 -433 1c0,53 14,130 26,181 7,33 37,141 51,159z"/>
   <path class="fil2" d="M1227 907l0 272 425 0c1,-80 -23,-274 -56,-339 -20,3 -59,18 -83,25 -28,8 -58,15 -88,21 -64,12 -132,20 -198,21z"/>
   <path class="fil2" d="M1227 1523c89,1 184,15 270,36 26,7 58,19 80,24 35,-57 69,-254 73,-330l-423 0 0 270z"/>
   <path class="fil2" d="M805 757c33,18 118,40 160,49 61,14 124,23 188,26l0 -518 -16 11c-5,3 -10,8 -14,11 -18,15 -65,54 -79,68l-59 64c-29,29 -92,120 -114,156 -12,19 -63,111 -66,133z"/>
   <path class="fil2" d="M1227 833c107,-8 244,-20 343,-64 -24,-73 -105,-206 -154,-263 -30,-35 -46,-56 -81,-91l-108 -93 0 511z"/>
   <path class="fil2" d="M826 1662c16,48 85,148 119,193 5,5 6,7 10,12l53 62c50,46 61,61 116,107 10,7 19,16 29,20l0 -458c-90,5 -167,17 -252,41 -26,7 -50,17 -75,23z"/>
   <path class="fil2" d="M1227 2048l26 -19c9,-7 15,-12 23,-20 10,-9 14,-10 24,-21 7,-8 15,-14 24,-22 36,-33 96,-104 125,-145 14,-19 23,-34 36,-54 22,-33 45,-75 63,-115 -96,-36 -212,-49 -321,-55l0 451z"/>
   <path class="fil2" d="M1639 741c57,-19 155,-80 208,-118l10 -9c1,-1 1,-1 2,-2l-49 -53c-8,-9 -16,-16 -25,-24 -54,-45 -81,-70 -145,-108 -76,-45 -195,-96 -299,-110l2 4c1,0 1,1 2,1l43 40c32,31 97,109 123,146 35,50 113,175 128,233z"/>
   <path class="fil2" d="M531 602c11,6 69,50 97,67 31,18 71,43 106,57 4,-4 1,0 4,-6l10 -23c5,-11 8,-18 14,-29 11,-19 19,-39 30,-57l69 -106c27,-41 50,-63 78,-98l87 -88c-126,25 -245,75 -341,143 -52,38 -99,78 -142,126 -9,9 -7,5 -12,14z"/>
   <path class="fil2" d="M1340 2054c20,-6 52,-10 75,-17 74,-20 134,-43 200,-80 20,-11 40,-23 58,-35l155 -128c-7,-12 -34,-26 -46,-34 -40,-25 -122,-70 -164,-82 -21,59 -85,156 -122,206l-55 68c-8,8 -13,13 -20,22 -7,9 -13,11 -20,20 -8,8 -13,13 -21,20l-40 40z"/>
   <path class="fil2" d="M562 1805l45 41c6,6 17,15 24,20 125,97 227,150 395,185 -1,-2 -77,-74 -96,-97l-53 -66c-32,-44 -69,-95 -94,-144 -7,-16 -17,-39 -27,-52 -27,9 -176,89 -194,113z"/>

<defs>
<filter id="filter0_d" x="0" y="0.563354" width="129.881" height="129.731" filterUnits="userSpaceOnUse" color-interpolation-filters="sRGB">
<feFlood flood-opacity="0" result="BackgroundImageFix"/>
<feColorMatrix in="SourceAlpha" type="matrix" values="0 0 0 0 0 0 0 0 0 0 0 0 0 0 0 0 0 0 127 0"/>
<feOffset dy="6"/>
<feGaussianBlur stdDeviation="10"/>
<feColorMatrix type="matrix" values="0 0 0 0 0.06739 0 0 0 0 0.101262 0 0 0 0 0.406114 0 0 0 0.3 0"/>
<feBlend mode="normal" in2="BackgroundImageFix" result="effect1_dropShadow"/>
<feBlend mode="normal" in="SourceGraphic" in2="effect1_dropShadow" result="shape"/>
</filter>
</defs>
  </g>
 </g>
</svg>
